<svg xmlns="http://www.w3.org/2000/svg" width="1100" height="760" viewBox="0 0 1100 760" role="img" aria-labelledby="title desc">
<title>Sample children's bike product image</title><desc>Orange and navy children's bicycle with training wheels</desc>
<rect width="1100" height="760" rx="44" fill="#fff6e9"/>
<circle cx="550" cy="380" r="300" fill="#ffe1bd"/>
<path d="M120 585 C300 532 466 532 655 575 C805 608 920 600 1010 560" fill="none" stroke="#ffd2a1" stroke-width="28" stroke-linecap="round"/>
<circle cx="315" cy="525" r="118" fill="#fff" stroke="#16324f" stroke-width="26"/>
<circle cx="790" cy="525" r="118" fill="#fff" stroke="#16324f" stroke-width="26"/>
<circle cx="315" cy="525" r="30" fill="#ff7a1a"/>
<circle cx="790" cy="525" r="30" fill="#ff7a1a"/>
<circle cx="210" cy="585" r="38" fill="#ffffff" stroke="#16324f" stroke-width="16"/>
<circle cx="900" cy="585" r="38" fill="#ffffff" stroke="#16324f" stroke-width="16"/>
<path d="M315 525 L465 330 L590 525 L315 525 M465 330 L690 330 L790 525 M590 525 L690 330" fill="none" stroke="#ff7a1a" stroke-width="34" stroke-linecap="round" stroke-linejoin="round"/>
<path d="M425 305 H530" stroke="#16324f" stroke-width="22" stroke-linecap="round"/>
<path d="M690 330 L740 230 M740 230 H830" stroke="#16324f" stroke-width="24" stroke-linecap="round" stroke-linejoin="round"/>
<path d="M438 308 L420 250 M392 250 H480" stroke="#16324f" stroke-width="20" stroke-linecap="round"/>
<path d="M560 525 H625" stroke="#16324f" stroke-width="18" stroke-linecap="round"/>
<text x="550" y="125" text-anchor="middle" font-family="Arial, Helvetica, sans-serif" font-size="52" font-weight="900" fill="#16324f">TinyTrail 16” Starter Bike</text>
<text x="550" y="180" text-anchor="middle" font-family="Arial, Helvetica, sans-serif" font-size="28" font-weight="700" fill="#5f6f82">Lightweight. Safe. Built for first rides.</text>
</svg>